PathFileType	4	(X/Y/Z)	Patient4_TMGait_0pt7_01_left_20.trc.trc
DataRate	CameraRate	NumFrames	NumMarkers	Units	OrigDataRate	OrigDataStartFrame	OrigNumFrames
87.500000000000	87.500000000000	4	33	mm	87.500000000000	18	       141
Frame#	Time	Sacral			L.Shoulder			Chest			R.Shoulder			Neck			R.ASIS			L.ASIS			R.Thigh.Superior			R.Thigh.Lateral			R.Thigh.Inferior			R.Patella			L.Thigh.Superior			L.Thigh.Lateral			L.Thigh.Inferior			L.Patella			L.Shank.Superior			L.Shank.Lateral			L.Shank.Inferior			R.Shank.Superior			R.Shank.Lateral			R.Shank.Inferior			R.Heel			R.Midfoot.Superior			R.Midfoot.Lateral			R.Toe			L.Heel			L.Midfoot.Lateral			L.Midfoot.Superior			L.Toe			L.Elbow			L.Wrist			R.Elbow			R.Wrist			
		X1	Y1	Z1	X2	Y2	Z2	X3	Y3	Z3	X4	Y4	Z4	X5	Y5	Z5	X6	Y6	Z6	X7	Y7	Z7	X8	Y8	Z8	X9	Y9	Z9	X10	Y10	Z10	X11	Y11	Z11	X12	Y12	Z12	X13	Y13	Z13	X14	Y14	Z14	X15	Y15	Z15	X16	Y16	Z16	X17	Y17	Z17	X18	Y18	Z18	X19	Y19	Z19	X20	Y20	Z20	X21	Y21	Z21	X22	Y22	Z22	X23	Y23	Z23	X24	Y24	Z24	X25	Y25	Z25	X26	Y26	Z26	X27	Y27	Z27	X28	Y28	Z28	X29	Y29	Z29	X30	Y30	Z30	X31	Y31	Z31	X32	Y32	Z32	X33	Y33	Z33	

18	23.154285714286	857.517790828544	1009.377135992535	511.336639568602	1031.735285719817	1421.251345312774	297.070669769699	1157.919701657435	1342.619552986251	436.294507176425	1120.196926158106	1428.839048427980	619.209402872669	1073.916013835971	1482.895184875809	445.800618101468	1094.198677557212	936.092907631895	595.102384856647	1043.382846093256	953.225424901770	323.151955480871	1098.072223286143	727.205924630165	564.396497270643	1005.757987278151	628.804136991085	633.036743482433	1061.195718317247	568.225458469805	545.481038925832	1046.289502249305	482.377753687321	550.312738920739	1121.321201333216	779.423550903978	347.519468966277	1076.137879469761	650.560620614461	268.900265759505	1183.478384798047	593.619738373425	325.646017695960	1214.900857874958	533.918425165199	319.366299054878	1204.577519007798	463.146621127791	309.063668237829	1151.450772356284	327.312796211677	258.375208324159	1251.657563043715	237.910791915857	307.976373603997	1011.523216939700	395.941495827424	558.753655925105	935.192335055519	297.842119292526	624.273145825841	961.788085864989	201.473539034671	555.943783267759	812.621793170000	42.753795572807	529.983022343528	985.297053125978	95.981295855136	559.663120962596	898.036605131116	36.724226138859	601.497311916529	1106.006878990258	43.155022472657	584.549084474827	1190.099488025196	50.264358887302	346.548479116125	1264.135674448141	59.365370403356	266.989962361603	1325.664899335750	145.489865325272	284.646863263795	1462.527475462977	129.181305423107	261.016147949938	865.337774998557	1104.825653347152	220.517502709277	808.861235654196	852.919546850867	218.321347230823	1273.441259668480	1128.921186060470	727.893252908948	1497.522769188302	1159.878515292680	609.244685042354	
19	23.165714285714	858.832668600931	1008.507302853240	509.613854274440	1031.681654270048	1420.519753653471	295.073211651842	1158.099047954914	1342.356759734695	434.250743918314	1120.120484293974	1428.513664401456	617.031638231996	1073.630172250877	1482.239230126802	443.825866825366	1095.160166159203	935.378565570649	593.467094974784	1044.744959859822	952.080301006708	321.394956011562	1096.978382198569	725.776265000216	563.450646183570	1003.013985038283	628.340695822859	632.070227116325	1057.811238944682	566.944330496393	544.847283513712	1041.834539272220	481.218276763134	549.535288236569	1122.300162646005	777.889392419346	346.007858357000	1075.527822406843	648.054849195035	269.194907517282	1183.517322068222	591.637367744547	324.746699476502	1214.579578057823	531.934350195383	319.320907427792	1204.194128466677	460.916702739487	309.581566615980	1150.531495830427	324.791591027113	260.696530316725	1251.264533875039	235.827038437741	309.896750738119	1006.364841400765	395.144619637241	558.153996100684	929.201124736723	297.786353863600	623.901595780444	954.796463492480	201.076239674713	555.655078864481	804.600334909981	42.778668721508	529.980269307317	977.298946678333	95.947415767682	559.642094041519	889.975476985325	36.684572288966	601.471723509463	1097.947735035027	42.978594671629	584.589470093537	1190.239815704121	48.852573013975	350.807972662254	1262.928989617461	57.349892984630	270.004827339132	1325.135739494562	143.062693730945	286.332377761228	1461.369945031182	125.987778337121	260.528755349927	861.679475645286	1106.761526353207	218.728710167321	800.332811187662	856.053811236108	218.016298518063	1276.893244247329	1130.769273980849	723.354956253697	1495.878445401442	1176.328432448595	601.544741415434	
20	23.177142857143	860.332238934981	1007.417783213854	507.577529100006	1031.687254461544	1419.624875363918	292.921464803683	1158.308216106205	1342.013347402484	432.131895911480	1119.878009676675	1428.081793530530	614.757423972448	1073.246060749716	1481.449097440019	441.743567551082	1096.224080003825	934.515084970285	591.803391693983	1046.514144092689	950.701356606635	319.576329161152	1096.092101240425	724.230949263237	562.513981372867	1000.466879583923	627.747566368504	631.022700128667	1054.776057223209	565.532744759451	544.200118481165	1037.768193851561	479.847141153061	548.728256489056	1123.854187934258	776.170235672073	344.487518464722	1075.369955438715	645.356140848697	269.608096708863	1183.934400930095	589.438300461603	324.049481485078	1214.439789504816	529.368100472774	319.539373658460	1203.638248139210	457.971461426685	310.311362390022	1148.592904236244	321.977259891226	263.072580941230	1249.078466473454	232.757961782248	312.048359260131	1001.490983394179	394.171601755802	557.487257473554	923.390434216800	297.645522942997	623.472390848767	947.896704673131	200.573337185276	555.328194839155	796.579675906965	42.754559375314	529.966776338424	969.293606249455	95.902426558854	559.604534438062	881.918349711716	36.621554716431	601.443363436495	1089.891697075081	42.774870801319	584.650835387241	1187.178687636836	47.093200099512	355.041649990182	1258.537799444161	54.660629979565	272.978805610950	1322.113069645629	139.247273578809	288.292728851188	1457.525622436425	120.316657138850	260.164058817001	858.251125461365	1108.510231801134	216.846539730609	793.032347306623	858.773144622542	217.653172387461	1279.982891795758	1132.409265184745	718.820081513086	1493.128970757400	1191.701364349819	594.179620303290	
21	23.188571428571	861.976037771001	1006.104774213868	505.233945012885	1031.771627383635	1418.548860901359	290.606194404658	1158.552665508429	1341.563341126039	429.939590942861	1119.475474026797	1427.530618420211	612.388803033414	1072.787146436361	1480.515201069329	439.537691380999	1097.367948592435	933.484007047422	590.125149488194	1048.658433027278	949.097772296069	317.720459897730	1095.471610141406	722.568676828226	561.587544223289	998.215454253495	626.986779280021	629.866316162860	1052.204183263696	563.974323270156	543.500991561296	1034.220845899406	478.208762551787	547.854139888231	1125.935985745395	774.252551794737	343.027919970913	1075.704201344148	642.564883015159	270.051064935289	1184.700574101456	587.059437539547	323.594633848179	1214.436217480399	526.295317178742	320.048147691877	1202.960005424420	454.448274362237	311.208659535915	1145.898785466146	318.952925512489	265.338899161739	1245.443983205325	228.892248990312	314.330825890368	996.986504358893	392.980073105337	556.709511060440	917.830065897130	297.405099757127	622.957727370740	941.119540446117	199.950012751290	554.941721050949	788.552279439597	42.700692997620	529.946643458363	961.284349328943	95.844464282006	559.542462804424	873.865525419944	36.544180359547	601.417340554090	1081.846234364946	42.536021245880	584.734895176700	1181.398243329554	45.125159157431	359.006142927349	1251.561414553274	51.488714389990	275.779980333894	1317.092012928237	134.281568914553	290.495801327143	1451.544221659106	112.513288317231	260.118237088228	855.109508746155	1109.996614779111	214.889357494707	786.878537260032	861.006217586569	217.223458895908	1282.719646106770	1133.817049574888	714.348869124973	1489.430591528799	1205.902180291186	587.175317743565	
